<?xml version='1.0' encoding='utf-8'?>
<mlt title="Anonymous Submission" version="6.6.0" root="/home/subhendu/Documents/my_play_ground/infy_global_hackathon_201903/sec-sys/videos" producer="main bin" LC_NUMERIC="en_IN">
 <profile width="1280" frame_rate_den="1" height="720" display_aspect_num="16" display_aspect_den="9" frame_rate_num="24" colorspace="709" sample_aspect_den="1" description="HD 720p 24 fps" progressive="1" sample_aspect_num="1"/>
 <producer id="2" title="Anonymous Submission" out="4062" in="0">
  <property name="length">4063</property>
  <property name="eof">pause</property>
  <property name="resource">musi/bensound-littleidea.mp3</property>
  <property name="meta.media.nb_streams">1</property>
  <property name="meta.media.0.stream.type">audio</property>
  <property name="meta.media.0.codec.sample_fmt">s16p</property>
  <property name="meta.media.0.codec.sample_rate">44100</property>
  <property name="meta.media.0.codec.channels">2</property>
  <property name="meta.media.0.codec.name">mp3</property>
  <property name="meta.media.0.codec.long_name">MP3 (MPEG audio layer 3)</property>
  <property name="meta.media.0.codec.bit_rate">112000</property>
  <property name="seekable">1</property>
  <property name="audio_index">0</property>
  <property name="video_index">-1</property>
  <property name="mute_on_pause">1</property>
  <property name="mlt_service">avformat-novalidate</property>
  <property name="kdenlive:folderid">-1</property>
  <property name="kdenlive:file_size">2370194</property>
  <property name="kdenlive:file_hash">76818ef174fdc05b5cc283eadb774254</property>
  <property name="global_feed">1</property>
 </producer>
 <producer id="5" title="Anonymous Submission" out="71" in="0">
  <property name="length">72</property>
  <property name="eof">pause</property>
  <property name="resource">/home/subhendu/Documents/my_play_ground/infy_global_hackathon_201903/sec-sys/Docs/slide-images/demo/.all.jpg</property>
  <property name="ttl">72</property>
  <property name="aspect_ratio">1</property>
  <property name="progressive">1</property>
  <property name="seekable">1</property>
  <property name="loop">0</property>
  <property name="meta.media.width">960</property>
  <property name="meta.media.height">720</property>
  <property name="mlt_service">pixbuf</property>
  <property name="animation"/>
  <property name="crop">0</property>
  <property name="fade">0</property>
  <property name="kdenlive:clipname">Demo</property>
  <property name="kdenlive:folderid">-1</property>
  <property name="luma_duration">24</property>
  <property name="luma_file"/>
  <property name="softness">0</property>
  <property name="kdenlive:duration">72</property>
  <property name="kdenlive:file_hash">9b85d8af9b324d4153e4478075ba8570</property>
  <property name="global_feed">1</property>
 </producer>
 <producer id="6" title="Anonymous Submission" out="6129" in="0">
  <property name="length">6130</property>
  <property name="eof">pause</property>
  <property name="resource">raw/Infy-Hackathon-Demo-Take1.mp4</property>
  <property name="meta.media.nb_streams">1</property>
  <property name="meta.media.0.stream.type">video</property>
  <property name="meta.media.0.stream.frame_rate">9.86644</property>
  <property name="meta.media.0.stream.sample_aspect_ratio">1.00074</property>
  <property name="meta.media.0.codec.width">1360</property>
  <property name="meta.media.0.codec.height">764</property>
  <property name="meta.media.0.codec.rotate">0</property>
  <property name="meta.media.0.codec.frame_rate">25</property>
  <property name="meta.media.0.codec.pix_fmt">yuvj420p</property>
  <property name="meta.media.0.codec.sample_aspect_ratio">1.00083</property>
  <property name="meta.media.0.codec.colorspace">709</property>
  <property name="meta.media.0.codec.color_trc">1</property>
  <property name="meta.media.0.codec.name">h264</property>
  <property name="meta.media.0.codec.long_name">H.264 / AVC / MPEG-4 AVC / MPEG-4 part 10</property>
  <property name="meta.media.0.codec.bit_rate">87068</property>
  <property name="meta.attr.0.stream.creation_time.markup">2019-04-10T10:59:31.000000Z</property>
  <property name="meta.attr.0.stream.language.markup">eng</property>
  <property name="meta.attr.0.stream.handler_name.markup">VideoHandler</property>
  <property name="meta.attr.major_brand.markup">isom</property>
  <property name="meta.attr.minor_version.markup">0</property>
  <property name="meta.attr.compatible_brands.markup">mp41avc1</property>
  <property name="meta.attr.creation_time.markup">2019-04-10T10:59:31.000000Z</property>
  <property name="meta.attr.encoder.markup">vlc 3.0.4 stream output</property>
  <property name="meta.attr.encoder-eng.markup">vlc 3.0.4 stream output</property>
  <property name="seekable">1</property>
  <property name="meta.media.sample_aspect_num">1361</property>
  <property name="meta.media.sample_aspect_den">1360</property>
  <property name="aspect_ratio">1.00074</property>
  <property name="audio_index">-1</property>
  <property name="video_index">0</property>
  <property name="mute_on_pause">1</property>
  <property name="mlt_service">avformat-novalidate</property>
  <property name="kdenlive:folderid">-1</property>
  <property name="meta.media.frame_rate_num">1791614626</property>
  <property name="meta.media.frame_rate_den">181586809</property>
  <property name="meta.media.colorspace">709</property>
  <property name="meta.media.color_trc">1</property>
  <property name="meta.media.width">1360</property>
  <property name="meta.media.height">764</property>
  <property name="meta.media.variable_frame_rate">1</property>
  <property name="meta.media.top_field_first">0</property>
  <property name="meta.media.progressive">1</property>
  <property name="kdenlive:file_size">2825337</property>
  <property name="kdenlive:file_hash">cda077e8c35e08c72f200b82689aa3e4</property>
  <property name="kdenlive:zone_in">143</property>
  <property name="kdenlive:zone_out">330</property>
  <property name="global_feed">1</property>
  <property name="kdenlive:clipname">take1</property>
 </producer>
 <producer id="7" title="Anonymous Submission" out="806" in="0">
  <property name="length">807</property>
  <property name="eof">pause</property>
  <property name="resource">raw/Infy-Hackathon-Demo-Take2.mp4</property>
  <property name="meta.media.nb_streams">1</property>
  <property name="meta.media.0.stream.type">video</property>
  <property name="meta.media.0.stream.frame_rate">30.044</property>
  <property name="meta.media.0.stream.sample_aspect_ratio">1.00074</property>
  <property name="meta.media.0.codec.width">1360</property>
  <property name="meta.media.0.codec.height">764</property>
  <property name="meta.media.0.codec.rotate">0</property>
  <property name="meta.media.0.codec.frame_rate">25</property>
  <property name="meta.media.0.codec.pix_fmt">yuvj420p</property>
  <property name="meta.media.0.codec.sample_aspect_ratio">1.00083</property>
  <property name="meta.media.0.codec.colorspace">709</property>
  <property name="meta.media.0.codec.color_trc">1</property>
  <property name="meta.media.0.codec.name">h264</property>
  <property name="meta.media.0.codec.long_name">H.264 / AVC / MPEG-4 AVC / MPEG-4 part 10</property>
  <property name="meta.media.0.codec.bit_rate">138933</property>
  <property name="meta.attr.0.stream.creation_time.markup">2019-04-10T11:18:39.000000Z</property>
  <property name="meta.attr.0.stream.language.markup">eng</property>
  <property name="meta.attr.0.stream.handler_name.markup">VideoHandler</property>
  <property name="meta.attr.major_brand.markup">isom</property>
  <property name="meta.attr.minor_version.markup">0</property>
  <property name="meta.attr.compatible_brands.markup">mp41avc1</property>
  <property name="meta.attr.creation_time.markup">2019-04-10T11:18:39.000000Z</property>
  <property name="meta.attr.encoder.markup">vlc 3.0.4 stream output</property>
  <property name="meta.attr.encoder-eng.markup">vlc 3.0.4 stream output</property>
  <property name="seekable">1</property>
  <property name="meta.media.sample_aspect_num">1361</property>
  <property name="meta.media.sample_aspect_den">1360</property>
  <property name="aspect_ratio">1.00074</property>
  <property name="audio_index">-1</property>
  <property name="video_index">0</property>
  <property name="mute_on_pause">1</property>
  <property name="mlt_service">avformat-novalidate</property>
  <property name="kdenlive:folderid">-1</property>
  <property name="meta.media.frame_rate_num">15781250</property>
  <property name="meta.media.frame_rate_den">525271</property>
  <property name="meta.media.colorspace">709</property>
  <property name="meta.media.color_trc">1</property>
  <property name="meta.media.width">1360</property>
  <property name="meta.media.height">764</property>
  <property name="meta.media.top_field_first">0</property>
  <property name="meta.media.progressive">1</property>
  <property name="kdenlive:file_size">598949</property>
  <property name="kdenlive:file_hash">adca4bc94b478f837a475d0fbeacd0fe</property>
  <property name="global_feed">1</property>
  <property name="kdenlive:clipname">take2</property>
 </producer>
 <producer id="8" title="Anonymous Submission" out="1862" in="0">
  <property name="length">1863</property>
  <property name="eof">pause</property>
  <property name="resource">raw/Infy-Hackathon-Demo-Take3.mp4</property>
  <property name="meta.media.nb_streams">1</property>
  <property name="meta.media.0.stream.type">video</property>
  <property name="meta.media.0.stream.frame_rate">29.5698</property>
  <property name="meta.media.0.stream.sample_aspect_ratio">1.00074</property>
  <property name="meta.media.0.codec.width">1360</property>
  <property name="meta.media.0.codec.height">764</property>
  <property name="meta.media.0.codec.rotate">0</property>
  <property name="meta.media.0.codec.frame_rate">25</property>
  <property name="meta.media.0.codec.pix_fmt">yuvj420p</property>
  <property name="meta.media.0.codec.sample_aspect_ratio">1.00083</property>
  <property name="meta.media.0.codec.colorspace">709</property>
  <property name="meta.media.0.codec.color_trc">1</property>
  <property name="meta.media.0.codec.name">h264</property>
  <property name="meta.media.0.codec.long_name">H.264 / AVC / MPEG-4 AVC / MPEG-4 part 10</property>
  <property name="meta.media.0.codec.bit_rate">462906</property>
  <property name="meta.attr.0.stream.creation_time.markup">2019-04-10T11:12:41.000000Z</property>
  <property name="meta.attr.0.stream.language.markup">eng</property>
  <property name="meta.attr.0.stream.handler_name.markup">VideoHandler</property>
  <property name="meta.attr.major_brand.markup">isom</property>
  <property name="meta.attr.minor_version.markup">0</property>
  <property name="meta.attr.compatible_brands.markup">mp41avc1</property>
  <property name="meta.attr.creation_time.markup">2019-04-10T11:12:41.000000Z</property>
  <property name="meta.attr.encoder.markup">vlc 3.0.4 stream output</property>
  <property name="meta.attr.encoder-eng.markup">vlc 3.0.4 stream output</property>
  <property name="seekable">1</property>
  <property name="meta.media.sample_aspect_num">1361</property>
  <property name="meta.media.sample_aspect_den">1360</property>
  <property name="aspect_ratio">1.00074</property>
  <property name="audio_index">-1</property>
  <property name="video_index">0</property>
  <property name="mute_on_pause">1</property>
  <property name="mlt_service">avformat-novalidate</property>
  <property name="kdenlive:folderid">-1</property>
  <property name="meta.media.frame_rate_num">35859375</property>
  <property name="meta.media.frame_rate_den">1212704</property>
  <property name="meta.media.colorspace">709</property>
  <property name="meta.media.color_trc">1</property>
  <property name="meta.media.width">1360</property>
  <property name="meta.media.height">764</property>
  <property name="meta.media.top_field_first">0</property>
  <property name="meta.media.progressive">1</property>
  <property name="kdenlive:file_size">4524901</property>
  <property name="kdenlive:file_hash">1438ae27d25847dafc6e1b6906041b7d</property>
  <property name="global_feed">1</property>
  <property name="kdenlive:clipname">take3</property>
 </producer>
 <producer id="10" title="Anonymous Submission" out="143" in="0">
  <property name="length">144</property>
  <property name="eof">pause</property>
  <property name="resource">/home/subhendu/Documents/my_play_ground/infy_global_hackathon_201903/sec-sys/Docs/slide-images/e2/.all.jpg</property>
  <property name="ttl">144</property>
  <property name="aspect_ratio">1</property>
  <property name="progressive">1</property>
  <property name="seekable">1</property>
  <property name="loop">0</property>
  <property name="meta.media.width">960</property>
  <property name="meta.media.height">720</property>
  <property name="mlt_service">pixbuf</property>
  <property name="animation"/>
  <property name="crop">0</property>
  <property name="fade">0</property>
  <property name="kdenlive:clipname">e2</property>
  <property name="kdenlive:folderid">-1</property>
  <property name="luma_duration">24</property>
  <property name="luma_file"/>
  <property name="softness">0</property>
  <property name="kdenlive:duration">144</property>
  <property name="kdenlive:file_hash">36997936621090af690d3885deecb775</property>
  <property name="global_feed">1</property>
 </producer>
 <producer id="11" title="Anonymous Submission" out="71" in="0">
  <property name="length">72</property>
  <property name="eof">pause</property>
  <property name="resource">/home/subhendu/Documents/my_play_ground/infy_global_hackathon_201903/sec-sys/Docs/slide-images/start/.all.jpg</property>
  <property name="ttl">72</property>
  <property name="aspect_ratio">1</property>
  <property name="progressive">1</property>
  <property name="seekable">1</property>
  <property name="loop">0</property>
  <property name="meta.media.width">960</property>
  <property name="meta.media.height">720</property>
  <property name="mlt_service">pixbuf</property>
  <property name="animation">Zoom</property>
  <property name="crop">0</property>
  <property name="fade">0</property>
  <property name="kdenlive:clipname">start</property>
  <property name="kdenlive:folderid">-1</property>
  <property name="luma_duration">24</property>
  <property name="softness">0</property>
  <property name="kdenlive:duration">72</property>
  <property name="kdenlive:file_hash">203b51386f58c75cfd81c00e9dbc9d14</property>
  <property name="global_feed">1</property>
  <filter id="filter0">
   <property name="background">colour:0</property>
   <property name="mlt_service">affine</property>
   <property name="transition.geometry">0=0/0:100%x100%;71=-14%/-14%:120%x120%</property>
   <property name="transition.cycle">72</property>
  </filter>
 </producer>
 <producer id="13" title="Anonymous Submission" out="167" in="0">
  <property name="length">168</property>
  <property name="eof">pause</property>
  <property name="resource">/home/subhendu/Documents/my_play_ground/infy_global_hackathon_201903/sec-sys/Docs/slide-images/e1/.all.jpg</property>
  <property name="ttl">168</property>
  <property name="aspect_ratio">1</property>
  <property name="progressive">1</property>
  <property name="seekable">1</property>
  <property name="loop">0</property>
  <property name="meta.media.width">960</property>
  <property name="meta.media.height">720</property>
  <property name="mlt_service">pixbuf</property>
  <property name="crop">0</property>
  <property name="fade">0</property>
  <property name="kdenlive:clipname">e1</property>
  <property name="kdenlive:folderid">-1</property>
  <property name="luma_duration">24</property>
  <property name="softness">0</property>
  <property name="kdenlive:duration">168</property>
  <property name="kdenlive:file_hash">a768bac1646a40c0cd90b25db0655e26</property>
  <property name="global_feed">1</property>
 </producer>
 <producer id="14" title="Anonymous Submission" out="213" in="0">
  <property name="length">214</property>
  <property name="eof">pause</property>
  <property name="resource">/home/subhendu/Documents/my_play_ground/infy_global_hackathon_201903/sec-sys/Docs/slide-images/e3/.all.jpg</property>
  <property name="ttl">144</property>
  <property name="aspect_ratio">1</property>
  <property name="progressive">1</property>
  <property name="seekable">1</property>
  <property name="loop">0</property>
  <property name="meta.media.width">960</property>
  <property name="meta.media.height">720</property>
  <property name="mlt_service">pixbuf</property>
  <property name="crop">0</property>
  <property name="fade">0</property>
  <property name="kdenlive:clipname">e3</property>
  <property name="kdenlive:folderid">-1</property>
  <property name="luma_duration">24</property>
  <property name="softness">0</property>
  <property name="kdenlive:duration">144</property>
  <property name="kdenlive:file_hash">c0646fe9cea2c9709f010d5b5834e36c</property>
  <property name="global_feed">1</property>
 </producer>
 <producer id="15" title="Anonymous Submission" out="71" in="0">
  <property name="length">72</property>
  <property name="eof">pause</property>
  <property name="resource">/home/subhendu/Documents/my_play_ground/infy_global_hackathon_201903/sec-sys/Docs/slide-images/end/.all.jpg</property>
  <property name="ttl">72</property>
  <property name="aspect_ratio">1</property>
  <property name="progressive">1</property>
  <property name="seekable">1</property>
  <property name="loop">0</property>
  <property name="meta.media.width">960</property>
  <property name="meta.media.height">720</property>
  <property name="mlt_service">pixbuf</property>
  <property name="animation">Zoom</property>
  <property name="crop">0</property>
  <property name="fade">0</property>
  <property name="kdenlive:clipname">end</property>
  <property name="kdenlive:folderid">-1</property>
  <property name="luma_duration">24</property>
  <property name="luma_file"/>
  <property name="softness">0</property>
  <property name="kdenlive:duration">72</property>
  <property name="kdenlive:file_hash">bbca30a218b0d04e66ebe6b0caf6d8c8</property>
  <property name="global_feed">1</property>
  <filter id="filter1">
   <property name="background">colour:0</property>
   <property name="mlt_service">affine</property>
   <property name="transition.geometry">0=0/0:100%x100%;71=-14%/-14%:120%x120%</property>
   <property name="transition.cycle">72</property>
  </filter>
 </producer>
 <producer id="16" title="Anonymous Submission" out="575" in="0">
  <property name="length">576</property>
  <property name="eof">pause</property>
  <property name="resource">/home/subhendu/Documents/my_play_ground/infy_global_hackathon_201903/sec-sys/Docs/slide-images/intro/.all.jpg</property>
  <property name="ttl">192</property>
  <property name="aspect_ratio">1</property>
  <property name="progressive">1</property>
  <property name="seekable">1</property>
  <property name="loop">0</property>
  <property name="meta.media.width">960</property>
  <property name="meta.media.height">720</property>
  <property name="mlt_service">pixbuf</property>
  <property name="animation"/>
  <property name="crop">0</property>
  <property name="fade">1</property>
  <property name="kdenlive:clipname">Intro</property>
  <property name="kdenlive:folderid">-1</property>
  <property name="luma_duration">24</property>
  <property name="luma_file">/usr/share/mlt/lumas/PAL/luma05.pgm</property>
  <property name="softness">0</property>
  <property name="kdenlive:duration">576</property>
  <property name="kdenlive:file_hash">405140af41e17c6e844afffcb2f45cf1</property>
  <property name="global_feed">1</property>
  <filter id="filter2">
   <property name="mlt_service">luma</property>
   <property name="cycle">192</property>
   <property name="duration">24</property>
   <property name="luma.resource">/usr/share/mlt/lumas/PAL/luma05.pgm</property>
   <property name="luma.softness">0</property>
  </filter>
 </producer>
 <playlist id="main bin">
  <property name="kdenlive:docproperties.audiotargettrack">2</property>
  <property name="kdenlive:docproperties.decimalPoint">.</property>
  <property name="kdenlive:docproperties.dirtypreviewchunks">0,25,50,75,100,125,150,175,200,225,250,275,300,325,350,375,400,425,450</property>
  <property name="kdenlive:docproperties.disablepreview">0</property>
  <property name="kdenlive:docproperties.documentid">1554917690930</property>
  <property name="kdenlive:docproperties.enableproxy">0</property>
  <property name="kdenlive:docproperties.generateimageproxy">0</property>
  <property name="kdenlive:docproperties.generateproxy">0</property>
  <property name="kdenlive:docproperties.kdenliveversion">17.12.3</property>
  <property name="kdenlive:docproperties.position">2591</property>
  <property name="kdenlive:docproperties.previewchunks"/>
  <property name="kdenlive:docproperties.previewextension">avi</property>
  <property name="kdenlive:docproperties.previewparameters">f=avi vcodec=mjpeg progressive=1 qscale=1</property>
  <property name="kdenlive:docproperties.profile">atsc_720p_24</property>
  <property name="kdenlive:docproperties.proxyextension">mkv</property>
  <property name="kdenlive:docproperties.proxyimageminsize">2000</property>
  <property name="kdenlive:docproperties.proxyminsize">1000</property>
  <property name="kdenlive:docproperties.proxyparams">-vf yadif,scale=960:-2 -qscale 3 -vcodec mjpeg -acodec pcm_s16le</property>
  <property name="kdenlive:docproperties.storagefolder">/1554917690930</property>
  <property name="kdenlive:docproperties.version">0.96</property>
  <property name="kdenlive:docproperties.verticalzoom">1</property>
  <property name="kdenlive:docproperties.videotargettrack">3</property>
  <property name="kdenlive:docproperties.zonein">0</property>
  <property name="kdenlive:docproperties.zoneout">2590</property>
  <property name="kdenlive:docproperties.zoom">7</property>
  <property name="kdenlive:documentnotes"/>
  <property name="kdenlive:clipgroups"/>
  <property name="kdenlive:docproperties.renderaudioquality">160</property>
  <property name="kdenlive:docproperties.rendercategory">Generic (HD for web, mobile devices...)</property>
  <property name="kdenlive:docproperties.renderendguide">-1</property>
  <property name="kdenlive:docproperties.renderexportaudio">0</property>
  <property name="kdenlive:docproperties.renderguide">0</property>
  <property name="kdenlive:docproperties.renderplay">0</property>
  <property name="kdenlive:docproperties.renderprofile">MP4 - the dominating format (H264/AAC)</property>
  <property name="kdenlive:docproperties.renderquality">23</property>
  <property name="kdenlive:docproperties.renderratio">1</property>
  <property name="kdenlive:docproperties.renderrescale">0</property>
  <property name="kdenlive:docproperties.renderrescaleheight">180</property>
  <property name="kdenlive:docproperties.renderrescalewidth">320</property>
  <property name="kdenlive:docproperties.renderscanning">0</property>
  <property name="kdenlive:docproperties.renderspeed">2</property>
  <property name="kdenlive:docproperties.renderstartguide">-1</property>
  <property name="kdenlive:docproperties.rendertcoverlay">0</property>
  <property name="kdenlive:docproperties.rendertctype">0</property>
  <property name="kdenlive:docproperties.rendertwopass">0</property>
  <property name="kdenlive:docproperties.renderurl">untitled.mp4</property>
  <property name="kdenlive:docproperties.renderzone">1</property>
  <property name="xml_retain">1</property>
  <entry out="4062" producer="2" in="0"/>
  <entry out="71" producer="5" in="0"/>
  <entry out="6129" producer="6" in="0"/>
  <entry out="806" producer="7" in="0"/>
  <entry out="1862" producer="8" in="0"/>
  <entry out="143" producer="10" in="0"/>
  <entry out="71" producer="11" in="0"/>
  <entry out="167" producer="13" in="0"/>
  <entry out="143" producer="14" in="0"/>
  <entry out="71" producer="15" in="0"/>
  <entry out="575" producer="16" in="0"/>
 </playlist>
 <producer id="black" out="500" in="0">
  <property name="length">15000</property>
  <property name="eof">pause</property>
  <property name="resource">black</property>
  <property name="aspect_ratio">0</property>
  <property name="mlt_service">colour</property>
  <property name="set.test_audio">0</property>
 </producer>
 <playlist id="black_track">
  <entry out="4079" producer="black" in="0"/>
 </playlist>
 <playlist id="playlist1">
  <property name="kdenlive:track_name">Audio 2</property>
  <property name="kdenlive:audio_track">1</property>
 </playlist>
 <producer id="2_playlist2" title="Anonymous Submission" out="4062" in="0">
  <property name="length">4063</property>
  <property name="eof">pause</property>
  <property name="resource">musi/bensound-littleidea.mp3</property>
  <property name="audio_index">0</property>
  <property name="video_index">-1</property>
  <property name="mute_on_pause">1</property>
  <property name="mlt_service">avformat-novalidate</property>
  <property name="seekable">1</property>
  <property name="kdenlive:folderid">-1</property>
  <property name="kdenlive:file_size">2370194</property>
  <property name="kdenlive:file_hash">76818ef174fdc05b5cc283eadb774254</property>
  <property name="global_feed">1</property>
  <property name="xml">was here</property>
  <property name="meta.media.nb_streams">1</property>
  <property name="meta.media.0.stream.type">audio</property>
  <property name="meta.media.0.codec.sample_fmt">s16p</property>
  <property name="meta.media.0.codec.sample_rate">44100</property>
  <property name="meta.media.0.codec.channels">2</property>
  <property name="meta.media.0.codec.name">mp3</property>
  <property name="meta.media.0.codec.long_name">MP3 (MPEG audio layer 3)</property>
  <property name="meta.media.0.codec.bit_rate">112000</property>
 </producer>
 <playlist id="playlist2">
  <property name="kdenlive:track_name">Audio 1</property>
  <property name="kdenlive:audio_track">1</property>
  <blank length="16"/>
  <entry out="4062" producer="2_playlist2" in="0"/>
 </playlist>
 <producer id="6_playlist4" title="Anonymous Submission" out="6129" in="0">
  <property name="length">6130</property>
  <property name="eof">pause</property>
  <property name="resource">raw/Infy-Hackathon-Demo-Take1.mp4</property>
  <property name="audio_index">-1</property>
  <property name="video_index">0</property>
  <property name="mute_on_pause">1</property>
  <property name="mlt_service">avformat-novalidate</property>
  <property name="seekable">1</property>
  <property name="aspect_ratio">1.00074</property>
  <property name="kdenlive:folderid">-1</property>
  <property name="kdenlive:file_size">2825337</property>
  <property name="kdenlive:file_hash">cda077e8c35e08c72f200b82689aa3e4</property>
  <property name="kdenlive:zone_in">143</property>
  <property name="kdenlive:zone_out">330</property>
  <property name="global_feed">1</property>
  <property name="xml">was here</property>
  <property name="meta.media.nb_streams">1</property>
  <property name="meta.media.0.stream.type">video</property>
  <property name="meta.media.0.stream.frame_rate">9.86644</property>
  <property name="meta.media.0.stream.sample_aspect_ratio">1.00074</property>
  <property name="meta.media.0.codec.width">1360</property>
  <property name="meta.media.0.codec.height">764</property>
  <property name="meta.media.0.codec.rotate">0</property>
  <property name="meta.media.0.codec.frame_rate">25</property>
  <property name="meta.media.0.codec.pix_fmt">yuvj420p</property>
  <property name="meta.media.0.codec.sample_aspect_ratio">1.00083</property>
  <property name="meta.media.0.codec.colorspace">709</property>
  <property name="meta.media.0.codec.color_trc">1</property>
  <property name="meta.media.0.codec.name">h264</property>
  <property name="meta.media.0.codec.long_name">H.264 / AVC / MPEG-4 AVC / MPEG-4 part 10</property>
  <property name="meta.media.0.codec.bit_rate">87068</property>
  <property name="meta.attr.0.stream.creation_time.markup">2019-04-10T10:59:31.000000Z</property>
  <property name="meta.attr.0.stream.language.markup">eng</property>
  <property name="meta.attr.0.stream.handler_name.markup">VideoHandler</property>
  <property name="meta.attr.major_brand.markup">isom</property>
  <property name="meta.attr.minor_version.markup">0</property>
  <property name="meta.attr.compatible_brands.markup">mp41avc1</property>
  <property name="meta.attr.creation_time.markup">2019-04-10T10:59:31.000000Z</property>
  <property name="meta.attr.encoder.markup">vlc 3.0.4 stream output</property>
  <property name="meta.attr.encoder-eng.markup">vlc 3.0.4 stream output</property>
  <property name="meta.media.sample_aspect_num">1361</property>
  <property name="meta.media.sample_aspect_den">1360</property>
  <property name="meta.media.frame_rate_num">1791614626</property>
  <property name="meta.media.frame_rate_den">181586809</property>
  <property name="meta.media.colorspace">709</property>
  <property name="meta.media.color_trc">1</property>
  <property name="meta.media.width">1360</property>
  <property name="meta.media.height">764</property>
  <property name="meta.media.variable_frame_rate">1</property>
  <property name="meta.media.top_field_first">0</property>
  <property name="meta.media.progressive">1</property>
 </producer>
 <producer id="7_playlist4" title="Anonymous Submission" out="806" in="0">
  <property name="length">807</property>
  <property name="eof">pause</property>
  <property name="resource">raw/Infy-Hackathon-Demo-Take2.mp4</property>
  <property name="audio_index">-1</property>
  <property name="video_index">0</property>
  <property name="mute_on_pause">1</property>
  <property name="mlt_service">avformat-novalidate</property>
  <property name="seekable">1</property>
  <property name="aspect_ratio">1.00074</property>
  <property name="kdenlive:folderid">-1</property>
  <property name="kdenlive:file_size">598949</property>
  <property name="kdenlive:file_hash">adca4bc94b478f837a475d0fbeacd0fe</property>
  <property name="global_feed">1</property>
  <property name="xml">was here</property>
  <property name="meta.media.nb_streams">1</property>
  <property name="meta.media.0.stream.type">video</property>
  <property name="meta.media.0.stream.frame_rate">30.044</property>
  <property name="meta.media.0.stream.sample_aspect_ratio">1.00074</property>
  <property name="meta.media.0.codec.width">1360</property>
  <property name="meta.media.0.codec.height">764</property>
  <property name="meta.media.0.codec.rotate">0</property>
  <property name="meta.media.0.codec.frame_rate">25</property>
  <property name="meta.media.0.codec.pix_fmt">yuvj420p</property>
  <property name="meta.media.0.codec.sample_aspect_ratio">1.00083</property>
  <property name="meta.media.0.codec.colorspace">709</property>
  <property name="meta.media.0.codec.color_trc">1</property>
  <property name="meta.media.0.codec.name">h264</property>
  <property name="meta.media.0.codec.long_name">H.264 / AVC / MPEG-4 AVC / MPEG-4 part 10</property>
  <property name="meta.media.0.codec.bit_rate">138933</property>
  <property name="meta.attr.0.stream.creation_time.markup">2019-04-10T11:18:39.000000Z</property>
  <property name="meta.attr.0.stream.language.markup">eng</property>
  <property name="meta.attr.0.stream.handler_name.markup">VideoHandler</property>
  <property name="meta.attr.major_brand.markup">isom</property>
  <property name="meta.attr.minor_version.markup">0</property>
  <property name="meta.attr.compatible_brands.markup">mp41avc1</property>
  <property name="meta.attr.creation_time.markup">2019-04-10T11:18:39.000000Z</property>
  <property name="meta.attr.encoder.markup">vlc 3.0.4 stream output</property>
  <property name="meta.attr.encoder-eng.markup">vlc 3.0.4 stream output</property>
  <property name="meta.media.sample_aspect_num">1361</property>
  <property name="meta.media.sample_aspect_den">1360</property>
  <property name="meta.media.frame_rate_num">15781250</property>
  <property name="meta.media.frame_rate_den">525271</property>
  <property name="meta.media.colorspace">709</property>
  <property name="meta.media.color_trc">1</property>
  <property name="meta.media.width">1360</property>
  <property name="meta.media.height">764</property>
  <property name="meta.media.top_field_first">0</property>
  <property name="meta.media.progressive">1</property>
 </producer>
 <producer id="8_playlist5" title="Anonymous Submission" out="1862" in="0">
  <property name="length">1863</property>
  <property name="eof">pause</property>
  <property name="resource">raw/Infy-Hackathon-Demo-Take3.mp4</property>
  <property name="audio_index">-1</property>
  <property name="video_index">0</property>
  <property name="mute_on_pause">1</property>
  <property name="mlt_service">avformat-novalidate</property>
  <property name="seekable">1</property>
  <property name="aspect_ratio">1.00074</property>
  <property name="kdenlive:folderid">-1</property>
  <property name="kdenlive:file_size">4524901</property>
  <property name="kdenlive:file_hash">1438ae27d25847dafc6e1b6906041b7d</property>
  <property name="global_feed">1</property>
  <property name="xml">was here</property>
  <property name="meta.media.nb_streams">1</property>
  <property name="meta.media.0.stream.type">video</property>
  <property name="meta.media.0.stream.frame_rate">29.5698</property>
  <property name="meta.media.0.stream.sample_aspect_ratio">1.00074</property>
  <property name="meta.media.0.codec.width">1360</property>
  <property name="meta.media.0.codec.height">764</property>
  <property name="meta.media.0.codec.rotate">0</property>
  <property name="meta.media.0.codec.frame_rate">25</property>
  <property name="meta.media.0.codec.pix_fmt">yuvj420p</property>
  <property name="meta.media.0.codec.sample_aspect_ratio">1.00083</property>
  <property name="meta.media.0.codec.colorspace">709</property>
  <property name="meta.media.0.codec.color_trc">1</property>
  <property name="meta.media.0.codec.name">h264</property>
  <property name="meta.media.0.codec.long_name">H.264 / AVC / MPEG-4 AVC / MPEG-4 part 10</property>
  <property name="meta.media.0.codec.bit_rate">462906</property>
  <property name="meta.attr.0.stream.creation_time.markup">2019-04-10T11:12:41.000000Z</property>
  <property name="meta.attr.0.stream.language.markup">eng</property>
  <property name="meta.attr.0.stream.handler_name.markup">VideoHandler</property>
  <property name="meta.attr.major_brand.markup">isom</property>
  <property name="meta.attr.minor_version.markup">0</property>
  <property name="meta.attr.compatible_brands.markup">mp41avc1</property>
  <property name="meta.attr.creation_time.markup">2019-04-10T11:12:41.000000Z</property>
  <property name="meta.attr.encoder.markup">vlc 3.0.4 stream output</property>
  <property name="meta.attr.encoder-eng.markup">vlc 3.0.4 stream output</property>
  <property name="meta.media.sample_aspect_num">1361</property>
  <property name="meta.media.sample_aspect_den">1360</property>
  <property name="meta.media.frame_rate_num">35859375</property>
  <property name="meta.media.frame_rate_den">1212704</property>
  <property name="meta.media.colorspace">709</property>
  <property name="meta.media.color_trc">1</property>
  <property name="meta.media.width">1360</property>
  <property name="meta.media.height">764</property>
  <property name="meta.media.top_field_first">0</property>
  <property name="meta.media.progressive">1</property>
 </producer>
 <playlist id="playlist3">
  <property name="kdenlive:track_name">Video 1</property>
  <entry out="71" producer="11" in="0"/>
  <entry out="575" producer="16" in="0"/>
  <blank length="5"/>
  <entry out="71" producer="5" in="0"/>
  <entry out="344" producer="6_playlist4" in="17">
   <filter id="qtblend">
    <property name="rotate_center">1</property>
    <property name="mlt_service">qtblend</property>
    <property name="kdenlive_id">qtblend</property>
    <property name="tag">qtblend</property>
    <property name="kdenlive_ix">1</property>
    <property name="rect">17=-500 -150 1920 1080 1</property>
    <property name="rotation">17=0</property>
    <property name="compositing">0</property>
    <property name="distort">0</property>
    <property name="kdenlive_info"/>
   </filter>
  </entry>
  <entry out="167" producer="13" in="0"/>
  <entry out="739" producer="7_playlist4" in="154"/>
  <entry out="143" producer="10" in="0"/>
  <entry out="1453" producer="8_playlist5" in="1030">
   <filter id="filter3">
    <property name="rotate_center">1</property>
    <property name="mlt_service">qtblend</property>
    <property name="kdenlive_id">qtblend</property>
    <property name="tag">qtblend</property>
    <property name="kdenlive_ix">1</property>
    <property name="rect">1030=-450 -120 1920 1080 1</property>
    <property name="rotation">1030=0</property>
    <property name="compositing">0</property>
    <property name="distort">0</property>
    <property name="kdenlive_info"/>
   </filter>
  </entry>
  <entry out="143" producer="14" in="0"/>
  <entry out="71" producer="15" in="0"/>
 </playlist>
 <playlist id="playlist4">
  <property name="kdenlive:track_name">Video 2</property>
 </playlist>
 <playlist id="playlist5">
  <property name="kdenlive:track_name">Video 3</property>
 </playlist>
 <tractor id="maintractor" title="Anonymous Submission" global_feed="1" out="4079" in="0">
  <track producer="black_track"/>
  <track producer="playlist1" hide="video"/>
  <track producer="playlist2" hide="video"/>
  <track producer="playlist3"/>
  <track producer="playlist4"/>
  <track producer="playlist5"/>
  <transition id="transition0">
   <property name="a_track">0</property>
   <property name="b_track">1</property>
   <property name="mlt_service">mix</property>
   <property name="always_active">1</property>
   <property name="sum">1</property>
   <property name="internal_added">237</property>
  </transition>
  <transition id="transition1">
   <property name="a_track">0</property>
   <property name="b_track">2</property>
   <property name="mlt_service">mix</property>
   <property name="always_active">1</property>
   <property name="sum">1</property>
   <property name="internal_added">237</property>
  </transition>
  <transition id="transition2">
   <property name="a_track">0</property>
   <property name="b_track">3</property>
   <property name="mlt_service">mix</property>
   <property name="always_active">1</property>
   <property name="sum">1</property>
   <property name="internal_added">237</property>
  </transition>
  <transition id="transition3">
   <property name="a_track">0</property>
   <property name="b_track">4</property>
   <property name="mlt_service">mix</property>
   <property name="always_active">1</property>
   <property name="sum">1</property>
   <property name="internal_added">237</property>
  </transition>
  <transition id="transition4">
   <property name="a_track">0</property>
   <property name="b_track">5</property>
   <property name="mlt_service">mix</property>
   <property name="always_active">1</property>
   <property name="sum">1</property>
   <property name="internal_added">237</property>
  </transition>
  <transition id="transition5" out="676" in="653">
   <property name="a_track">0</property>
   <property name="b_track">3</property>
   <property name="factory">loader</property>
   <property name="mlt_service">luma</property>
   <property name="automatic">1</property>
   <property name="kdenlive_id">dissolve</property>
   <property name="force_track">0</property>
   <property name="reverse">0</property>
  </transition>
  <transition id="transition6" out="95" in="72">
   <property name="a_track">0</property>
   <property name="b_track">3</property>
   <property name="factory">loader</property>
   <property name="mlt_service">luma</property>
   <property name="automatic">1</property>
   <property name="kdenlive_id">dissolve</property>
   <property name="force_track">0</property>
   <property name="reverse">0</property>
  </transition>
  <transition id="transition7" out="748" in="725">
   <property name="a_track">0</property>
   <property name="b_track">3</property>
   <property name="factory">loader</property>
   <property name="mlt_service">luma</property>
   <property name="automatic">1</property>
   <property name="kdenlive_id">dissolve</property>
   <property name="force_track">0</property>
   <property name="reverse">0</property>
  </transition>
  <transition id="transition8" out="1076" in="1053">
   <property name="a_track">0</property>
   <property name="b_track">3</property>
   <property name="factory">loader</property>
   <property name="mlt_service">luma</property>
   <property name="automatic">1</property>
   <property name="kdenlive_id">dissolve</property>
   <property name="force_track">0</property>
   <property name="reverse">0</property>
  </transition>
  <transition id="transition9" out="1244" in="1221">
   <property name="a_track">0</property>
   <property name="b_track">3</property>
   <property name="factory">loader</property>
   <property name="mlt_service">luma</property>
   <property name="automatic">1</property>
   <property name="kdenlive_id">dissolve</property>
   <property name="force_track">0</property>
   <property name="reverse">0</property>
  </transition>
  <transition id="transition10" out="1830" in="1807">
   <property name="a_track">0</property>
   <property name="b_track">3</property>
   <property name="factory">loader</property>
   <property name="mlt_service">luma</property>
   <property name="automatic">1</property>
   <property name="kdenlive_id">dissolve</property>
   <property name="force_track">0</property>
   <property name="reverse">0</property>
  </transition>
  <transition id="transition11" out="2398" in="2375">
   <property name="a_track">0</property>
   <property name="b_track">3</property>
   <property name="factory">loader</property>
   <property name="mlt_service">luma</property>
   <property name="automatic">1</property>
   <property name="kdenlive_id">dissolve</property>
   <property name="force_track">0</property>
   <property name="reverse">0</property>
  </transition>
  <transition id="transition12">
   <property name="a_track">0</property>
   <property name="b_track">3</property>
   <property name="compositing">0</property>
   <property name="distort">0</property>
   <property name="rotate_center">0</property>
   <property name="mlt_service">qtblend</property>
   <property name="internal_added">237</property>
  </transition>
  <transition id="transition13">
   <property name="a_track">0</property>
   <property name="b_track">4</property>
   <property name="compositing">0</property>
   <property name="distort">0</property>
   <property name="rotate_center">0</property>
   <property name="mlt_service">qtblend</property>
   <property name="internal_added">237</property>
  </transition>
  <transition id="transition14">
   <property name="a_track">0</property>
   <property name="b_track">5</property>
   <property name="compositing">0</property>
   <property name="distort">0</property>
   <property name="rotate_center">0</property>
   <property name="mlt_service">qtblend</property>
   <property name="internal_added">237</property>
  </transition>
 </tractor>
</mlt>
